#!OML:ASF I:\golf\golf\golf 2\Subject 1\2002-09-07\Subject1.ASF
:FULLY-SPECIFIED
:DEGREES
166
root -7.35897 17.478 3.0691 4.49466 40.4954 -9.68567
lowerback 3.96045 -10.8627 -18.0101
upperback -1.11869 -15.1984 -3.27862
thorax 0.239531 -7.37908 6.19157
lowerneck -3.81559 22.4447 0.423202
upperneck 9.1943 31.8803 -13.6574
head 5.74454 14.8242 -1.78081
rclavicle 1.52667e-013 6.36111e-015
rhumerus 22.8628 -19.1751 -69.0067
rradius 106.007
rwrist 3.42446
rhand -62.0098 50.2233
rfingers 7.12502
rthumb -34.0631 23.4536
lclavicle 1.52667e-013 6.36111e-015
lhumerus 107.119 -45.514 42.932
lradius 34.3462
lwrist -2.39789
lhand -28.1394 -3.42127
lfingers 7.12502
lthumb -181.521 -153.447
rfemur -35.1903 15.8731 25.3532
rtibia 38.8897
rfoot -9.31592 27.449
rtoes 29.561
lfemur -0.778685 15.4967 1.6598
ltibia 25.2677
lfoot -15.5822 20.5117
ltoes -13.2649
167
root -7.35803 17.4901 3.08138 4.71329 40.2401 -9.54184
lowerback 3.97291 -10.9449 -18.0948
upperback -1.15222 -15.3188 -3.12076
thorax 0.288358 -7.4432 6.38143
lowerneck -4.52242 22.6138 -0.211195
upperneck 9.31444 32.1617 -13.4311
head 5.78207 14.907 -1.56189
rclavicle 5.9039e-014 4.13472e-014
rhumerus 24.0929 -19.3424 -68.0926
rradius 106.369
rwrist 4.05406
rhand -62.1333 51.1211
rfingers 7.12502
rthumb -34.1803 24.3775
lclavicle 5.9039e-014 4.13472e-014
lhumerus 107.495 -44.8121 43.4322
lradius 34.7446
lwrist -2.20827
lhand -28.7469 -4.01244
lfingers 7.12502
lthumb -182.107 -154.043
rfemur -35.2182 16.0834 25.2361
rtibia 38.763
rfoot -8.69389 27.5863
rtoes 28.0984
lfemur -0.982636 15.7341 1.58686
ltibia 25.4872
lfoot -14.8341 20.7875
ltoes -15.4634
168
root -7.35709 17.5071 3.09647 4.94902 40.0246 -9.32669
lowerback 3.94122 -11.0227 -18.2616
upperback -1.12914 -15.4174 -3.02118
thorax 0.422934 -7.50403 6.53359
lowerneck -4.89974 22.7424 -0.648526
upperneck 9.101 32.3451 -13.4951
head 5.73247 14.9752 -1.49592
rclavicle 1.14102e-013 -2.8625e-014
rhumerus 25.3221 -19.6843 -67.3496
rradius 106.732
rwrist 5.02251
rhand -62.0507 51.0172
rfingers 7.12502
rthumb -34.1019 24.2562
lclavicle 1.14102e-013 -2.8625e-014
lhumerus 107.969 -44.1106 43.7301
lradius 35.2335
lwrist -2.16607
lhand -29.2025 -4.16506
lfingers 7.12502
lthumb -182.547 -154.201
rfemur -35.2129 16.229 25.0852
rtibia 38.6615
rfoot -8.14663 27.7292
rtoes 29.8243
lfemur -1.29316 16.0182 1.45308
ltibia 25.6735
lfoot -13.3678 21.4313
ltoes -19.18
169
root -7.35781 17.5087 3.10647 5.09136 39.8022 -9.20781
lowerback 3.9559 -11.0375 -18.2582
upperback -1.1859 -15.4473 -3.06613
thorax 0.346168 -7.50838 6.49539
lowerneck -4.59482 22.7605 -0.57493
upperneck 8.56598 32.292 -13.8257
head 5.57867 14.9917 -1.65371
rclavicle -1.45709e-013 -2.8625e-014
rhumerus 25.9694 -20.2047 -66.6235
rradius 107.051
rwrist 6.18525
rhand -62.2271 51.3902
rfingers 7.12502
rthumb -34.2694 24.6666
lclavicle -1.45709e-013 -2.8625e-014
lhumerus 108.542 -43.7029 43.7293
lradius 35.7223
lwrist -2.12951
lhand -29.7974 -4.51044
lfingers 7.12502
lthumb -183.122 -154.554
rfemur -35.2333 16.2396 25.0727
rtibia 38.6178
rfoot -8.03841 27.8604
rtoes 31.5229
lfemur -1.25814 16.0291 1.41851
ltibia 25.7546
lfoot -13.3642 21.2651
ltoes -18.4173
170
root -7.35888 17.4994 3.11326 5.14593 39.5257 -9.15001
lowerback 3.96285 -10.9329 -18.1629
upperback -1.27156 -15.3187 -3.23952
thorax 0.146178 -7.42169 6.30903
lowerneck -4.06618 22.6767 -0.173762
upperneck 8.18597 32.0801 -13.9917
head 5.44737 14.9512 -1.82941
rclavicle 7.25564e-014 1.59028e-014
rhumerus 26.1703 -21.0444 -65.892
rradius 107.412
rwrist 7.37083
rhand -62.3284 51.2455
rfingers 7.12502
rthumb -34.3656 24.5436
lclavicle 7.25564e-014 1.59028e-014
lhumerus 109.358 -43.5644 43.4592
lradius 36.2321
lwrist -1.79281
lhand -30.2914 -5.28029
lfingers 7.12502
lthumb -183.599 -155.331
rfemur -35.2378 16.2959 25.1135
rtibia 38.6207
rfoot -7.96651 28.003
rtoes 31.8151
lfemur -0.826956 15.9227 1.48679
ltibia 25.729
lfoot -14.5706 20.2343
ltoes -14.0239
171
root -7.35828 17.4975 3.12202 5.21755 39.2431 -8.92575
lowerback 4.01435 -10.7757 -18.2415
upperback -1.33705 -15.1337 -3.48649
thorax -0.0471546 -7.30497 6.14013
lowerneck -3.78375 22.5786 0.402503
upperneck 8.38052 31.9329 -13.8851
head 5.51974 14.9013 -1.88032
rclavicle -6.83819e-014 -6.67916e-014
rhumerus 26.2757 -21.9298 -65.0885
rradius 107.822
rwrist 8.44816
rhand -62.3174 50.3229
rfingers 7.12502
rthumb -34.3551 23.6187
lclavicle -6.83819e-014 -6.67916e-014
lhumerus 110.241 -43.4982 43.1298
lradius 36.8027
lwrist -1.31366
lhand -30.5567 -5.92323
lfingers 7.12502
lthumb -183.855 -155.978
rfemur -35.1305 16.5025 24.975
rtibia 38.6198
rfoot -7.87597 28.0278
rtoes 31.6386
lfemur -0.397253 16.0331 1.42659
ltibia 25.6456
lfoot -14.8123 19.5984
ltoes -12.7416
172
root -7.35592 17.5069 3.1295 5.35725 39.0066 -8.66912
lowerback 4.08005 -10.7393 -18.3918
upperback -1.37488 -15.1107 -3.58451
thorax -0.121965 -7.28106 6.13283
lowerneck -4.02533 22.6076 0.498405
upperneck 8.71406 32.0178 -13.6993
head 5.65179 14.9151 -1.78345
rclavicle 7.0171e-014 6.36111e-015
rhumerus 26.7547 -22.4268 -64.2771
rradius 108.177
rwrist 9.52576
rhand -62.5428 49.0526
rfingers 7.12502
rthumb -34.5691 22.397
lclavicle 7.0171e-014 6.36111e-015
lhumerus 110.877 -43.0678 43.0277
lradius 37.2562
lwrist -1.15372
lhand -31.0097 -6.4459
lfingers 7.12502
lthumb -184.293 -156.509
rfemur -35.0488 16.7171 24.7639
rtibia 38.5567
rfoot -7.51848 28.0588
rtoes 31.2803
lfemur -0.343131 16.1777 1.27285
ltibia 25.5926
lfoot -14.2073 19.7883
ltoes -13.8519
173
root -7.35367 17.5227 3.1383 5.49139 38.7929 -8.53993
lowerback 4.06559 -10.7854 -18.4979
upperback -1.38808 -15.1738 -3.52671
thorax -0.0726332 -7.31499 6.23017
lowerneck -4.39393 22.7178 0.167725
upperneck 8.76848 32.1928 -13.5886
head 5.67178 14.9719 -1.6685
rclavicle 6.36111e-014 6.36111e-014
rhumerus 27.4447 -22.6634 -63.4485
rradius 108.444
rwrist 10.4543
rhand -63.1451 47.5809
rfingers 7.12502
rthumb -35.1406 21.0577
lclavicle 6.36111e-014 6.36111e-014
lhumerus 111.333 -42.3942 43.0642
lradius 37.5636
lwrist -1.21246
lhand -31.6389 -6.89078
lfingers 7.12502
lthumb -184.9 -156.967
rfemur -34.9998 16.8938 24.6513
rtibia 38.4127
rfoot -7.05221 28.1513
rtoes 30.1976
lfemur -0.578625 16.2286 1.19864
ltibia 25.641
lfoot -13.2734 20.4194
ltoes -15.7689
174
root -7.35318 17.532 3.14754 5.44515 38.5518 -8.6248
lowerback 4.06001 -10.7788 -18.479
upperback -1.39328 -15.1653 -3.45668
thorax -0.0623585 -7.31355 6.29231
lowerneck -4.51188 22.7876 -0.0493468
upperneck 8.63744 32.2732 -13.5644
head 5.61794 15.0107 -1.63428
rclavicle 2.62396e-014 4.13472e-014
rhumerus 27.9187 -22.9441 -62.5996
rradius 108.724
rwrist 11.3222
rhand -63.8385 45.7693
rfingers 7.12502
rthumb -35.798 19.4034
lclavicle 2.62396e-014 4.13472e-014
lhumerus 111.68 -41.9011 43.1316
lradius 37.9439
lwrist -1.27835
lhand -32.1248 -7.0465
lfingers 7.12502
lthumb -185.369 -157.135
rfemur -34.8748 17.0853 24.7531
rtibia 38.2267
rfoot -6.90477 28.1066
rtoes 30.3078
lfemur -0.651639 16.3056 1.34917
ltibia 25.8143
lfoot -12.674 20.6599
ltoes -17.2879
175
root -7.35201 17.5359 3.15273 5.41194 38.3126 -8.7144
lowerback 4.07092 -10.7413 -18.3708
upperback -1.43811 -15.1219 -3.474
thorax -0.158217 -7.28365 6.24008
lowerneck -4.45959 22.822 -0.100909
upperneck 8.50239 32.2797 -13.4822
head 5.54512 15.032 -1.62694
rclavicle 1.68172e-013 -2.54444e-014
rhumerus 28.2136 -23.3057 -61.892
rradius 109.036
rwrist 11.8376
rhand -63.8308 45.766
rfingers 7.12502
rthumb -35.7906 19.3983
lclavicle 1.68172e-013 -2.54444e-014
lhumerus 111.964 -41.6413 43.2063
lradius 38.3277
lwrist -1.35447
lhand -32.6155 -7.55557
lfingers 7.12502
lthumb -185.843 -157.656
rfemur -34.7889 17.2677 24.8426
rtibia 38.0439
rfoot -6.74594 28.0367
rtoes 32.2761
lfemur -0.651077 16.3825 1.48983
ltibia 26.0788
lfoot -12.6615 20.4815
ltoes -17.7219
176
root -7.35149 17.5404 3.15603 5.45681 38.0816 -8.75362
lowerback 4.07032 -10.7188 -18.2429
upperback -1.51036 -15.0982 -3.53511
thorax -0.289732 -7.25839 6.13408
lowerneck -4.41979 22.8539 -0.156553
upperneck 8.4297 32.2768 -13.2767
head 5.47144 15.0509 -1.58702
rclavicle 1.07145e-013 2.22639e-014
rhumerus 28.4644 -23.6428 -61.2547
rradius 109.271
rwrist 11.7583
rhand -63.537 46.7372
rfingers 7.12502
rthumb -35.5122 20.3023
lclavicle 1.07145e-013 2.22639e-014
lhumerus 112.203 -41.4633 43.3255
lradius 38.5787
lwrist -1.26731
lhand -32.9413 -8.51517
lfingers 7.12502
lthumb -186.158 -158.625
rfemur -34.7907 17.4592 24.863
rtibia 37.9026
rfoot -6.18751 28.2006
rtoes 33.9298
lfemur -0.743491 16.4304 1.55802
ltibia 26.3469
lfoot -12.5658 20.4104
ltoes -18.2732
177
root -7.35285 17.5421 3.15647 5.44627 37.8443 -8.88623
lowerback 4.08031 -10.7198 -18.1126
upperback -1.55858 -15.105 -3.50887
thorax -0.37001 -7.25568 6.10998
lowerneck -4.4552 22.9008 -0.245822
upperneck 8.31349 32.3207 -13.2615
head 5.42712 15.0779 -1.57665
rclavicle -7.37491e-014 -3.81667e-014
rhumerus 28.7883 -23.8667 -60.6328
rradius 109.39
rwrist 11.6057
rhand -63.4211 47.8828
rfingers 7.12502
rthumb -35.4023 21.4216
lclavicle -7.37491e-014 -3.81667e-014
lhumerus 112.377 -41.1708 43.5233
lradius 38.8199
lwrist -1.05071
lhand -33.0405 -8.85544
lfingers 7.12502
lthumb -186.253 -158.968
rfemur -34.8161 17.5841 24.9892
rtibia 37.8064
rfoot -5.75611 28.4234
rtoes 34.3205
lfemur -0.836344 16.4695 1.6974
ltibia 26.5555
lfoot -12.3713 20.428
ltoes -18.4549
